<svg width="22" height="22" viewBox="0 0 22 22" fill="none" xmlns="http://www.w3.org/2000/svg">
<path d="M5.18324 12.3332L11.7166 18.8666C11.9832 19.1332 12.111 19.4443 12.0999 19.7999C12.0888 20.1555 11.9499 20.4666 11.6832 20.7332C11.4166 20.9777 11.1055 21.1055 10.7499 21.1166C10.3943 21.1277 10.0832 20.9999 9.81657 20.7332L1.01657 11.9332C0.883236 11.7999 0.788791 11.6555 0.733236 11.4999C0.67768 11.3443 0.649902 11.1777 0.649902 10.9999C0.649902 10.8221 0.67768 10.6555 0.733236 10.4999C0.788791 10.3443 0.883236 10.1999 1.01657 10.0666L9.81657 1.26657C10.061 1.02212 10.3666 0.899902 10.7332 0.899902C11.0999 0.899902 11.4166 1.02212 11.6832 1.26657C11.9499 1.53324 12.0832 1.8499 12.0832 2.21657C12.0832 2.58324 11.9499 2.8999 11.6832 3.16657L5.18324 9.66657H20.0832C20.461 9.66657 20.7777 9.79435 21.0332 10.0499C21.2888 10.3055 21.4166 10.6221 21.4166 10.9999C21.4166 11.3777 21.2888 11.6943 21.0332 11.9499C20.7777 12.2055 20.461 12.3332 20.0832 12.3332H5.18324Z" fill="#9747FF"/>
</svg>
