<svg width="21" height="22" viewBox="0 0 21 22" fill="none" xmlns="http://www.w3.org/2000/svg">
<path d="M16.3166 12.3332H1.41659C1.03881 12.3332 0.722141 12.2055 0.466585 11.9499C0.21103 11.6943 0.083252 11.3777 0.083252 10.9999C0.083252 10.6221 0.21103 10.3055 0.466585 10.0499C0.722141 9.79435 1.03881 9.66657 1.41659 9.66657H16.3166L9.78325 3.13323C9.51659 2.86657 9.38881 2.55546 9.39992 2.1999C9.41103 1.84435 9.54992 1.53324 9.81659 1.26657C10.0833 1.02212 10.3944 0.894346 10.7499 0.883235C11.1055 0.872124 11.4166 0.999902 11.6833 1.26657L20.4833 10.0666C20.6166 10.1999 20.711 10.3443 20.7666 10.4999C20.8221 10.6555 20.8499 10.8221 20.8499 10.9999C20.8499 11.1777 20.8221 11.3443 20.7666 11.4999C20.711 11.6555 20.6166 11.7999 20.4833 11.9332L11.6833 20.7332C11.4388 20.9777 11.1333 21.0999 10.7666 21.0999C10.3999 21.0999 10.0833 20.9777 9.81659 20.7332C9.54992 20.4666 9.41659 20.1499 9.41659 19.7832C9.41659 19.4166 9.54992 19.0999 9.81659 18.8332L16.3166 12.3332Z" fill="#9747FF"/>
</svg>
